<svg width="163" height="52" viewBox="0 0 163 52" fill="none" xmlns="http://www.w3.org/2000/svg">
<path d="M81.56 34H77.456L70.592 23.608V34H66.488V17.152H70.592L77.456 27.592V17.152H81.56V34ZM97.7589 20.608V34H93.6549V32.176C93.2389 32.768 92.6709 33.248 91.9509 33.616C91.2469 33.968 90.4629 34.144 89.5989 34.144C88.5749 34.144 87.6709 33.92 86.8869 33.472C86.1029 33.008 85.4949 32.344 85.0629 31.48C84.6309 30.616 84.4149 29.6 84.4149 28.432V20.608H88.4949V27.88C88.4949 28.776 88.7269 29.472 89.1909 29.968C89.6549 30.464 90.2789 30.712 91.0629 30.712C91.8629 30.712 92.4949 30.464 92.9589 29.968C93.4229 29.472 93.6549 28.776 93.6549 27.88V20.608H97.7589ZM106.731 30.16L109.635 20.608H114.003L109.251 34H104.187L99.4348 20.608H103.827L106.731 30.16ZM117.794 19.216C117.074 19.216 116.482 19.008 116.018 18.592C115.57 18.16 115.346 17.632 115.346 17.008C115.346 16.368 115.57 15.84 116.018 15.424C116.482 14.992 117.074 14.776 117.794 14.776C118.498 14.776 119.074 14.992 119.522 15.424C119.986 15.84 120.218 16.368 120.218 17.008C120.218 17.632 119.986 18.16 119.522 18.592C119.074 19.008 118.498 19.216 117.794 19.216ZM119.834 20.608V34H115.73V20.608H119.834ZM136.032 20.608V34H131.928V32.176C131.512 32.768 130.944 33.248 130.224 33.616C129.52 33.968 128.736 34.144 127.872 34.144C126.848 34.144 125.944 33.92 125.16 33.472C124.376 33.008 123.768 32.344 123.336 31.48C122.904 30.616 122.688 29.6 122.688 28.432V20.608H126.768V27.88C126.768 28.776 127 29.472 127.464 29.968C127.928 30.464 128.552 30.712 129.336 30.712C130.136 30.712 130.768 30.464 131.232 29.968C131.696 29.472 131.928 28.776 131.928 27.88V20.608H136.032ZM156.068 20.464C157.732 20.464 159.052 20.968 160.028 21.976C161.02 22.984 161.516 24.384 161.516 26.176V34H157.436V26.728C157.436 25.864 157.204 25.2 156.74 24.736C156.292 24.256 155.668 24.016 154.868 24.016C154.068 24.016 153.436 24.256 152.972 24.736C152.524 25.2 152.3 25.864 152.3 26.728V34H148.22V26.728C148.22 25.864 147.988 25.2 147.524 24.736C147.076 24.256 146.452 24.016 145.652 24.016C144.852 24.016 144.22 24.256 143.756 24.736C143.308 25.2 143.084 25.864 143.084 26.728V34H138.98V20.608H143.084V22.288C143.5 21.728 144.044 21.288 144.716 20.968C145.388 20.632 146.148 20.464 146.996 20.464C148.004 20.464 148.9 20.68 149.684 21.112C150.484 21.544 151.108 22.16 151.556 22.96C152.02 22.224 152.652 21.624 153.452 21.16C154.252 20.696 155.124 20.464 156.068 20.464Z" fill="#56B8FF"/>
<rect opacity="0.2" width="48" height="48" rx="24" fill="#56B8FF"/>
<rect x="21" y="20" width="32" height="32" rx="16" fill="#56B8FF"/>
</svg>
