<svg width="255" height="82" viewBox="0 0 255 82" fill="none" xmlns="http://www.w3.org/2000/svg">
<path d="M127.153 53.4729H120.754L110.053 37.2717V53.4729H103.655V27.2068H110.053L120.754 43.4828V27.2068H127.153V53.4729ZM152.407 32.5947V53.4729H146.009V50.6293C145.36 51.5522 144.475 52.3005 143.352 52.8742C142.254 53.423 141.032 53.6974 139.685 53.6974C138.089 53.6974 136.679 53.3482 135.457 52.6497C134.235 51.9264 133.287 50.8912 132.614 49.5442C131.94 48.1972 131.603 46.6133 131.603 44.7924V32.5947H137.964V43.9318C137.964 45.3287 138.326 46.4137 139.049 47.187C139.773 47.9603 140.745 48.3469 141.968 48.3469C143.215 48.3469 144.2 47.9603 144.924 47.187C145.647 46.4137 146.009 45.3287 146.009 43.9318V32.5947H152.407ZM166.394 47.4863L170.921 32.5947H177.731L170.323 53.4729H162.428L155.019 32.5947H161.867L166.394 47.4863ZM183.642 30.4246C182.519 30.4246 181.596 30.1003 180.873 29.4517C180.175 28.7782 179.825 27.9551 179.825 26.9823C179.825 25.9845 180.175 25.1613 180.873 24.5128C181.596 23.8393 182.519 23.5026 183.642 23.5026C184.739 23.5026 185.637 23.8393 186.336 24.5128C187.059 25.1613 187.421 25.9845 187.421 26.9823C187.421 27.9551 187.059 28.7782 186.336 29.4517C185.637 30.1003 184.739 30.4246 183.642 30.4246ZM186.822 32.5947V53.4729H180.424V32.5947H186.822ZM212.075 32.5947V53.4729H205.677V50.6293C205.029 51.5522 204.143 52.3005 203.021 52.8742C201.923 53.423 200.701 53.6974 199.354 53.6974C197.757 53.6974 196.348 53.3482 195.126 52.6497C193.903 51.9264 192.956 50.8912 192.282 49.5442C191.609 48.1972 191.272 46.6133 191.272 44.7924V32.5947H197.633V43.9318C197.633 45.3287 197.994 46.4137 198.718 47.187C199.441 47.9603 200.414 48.3469 201.636 48.3469C202.883 48.3469 203.869 47.9603 204.592 47.187C205.315 46.4137 205.677 45.3287 205.677 43.9318V32.5947H212.075ZM243.311 32.3702C245.906 32.3702 247.963 33.1559 249.485 34.7274C251.032 36.2989 251.805 38.4815 251.805 41.2752V53.4729H245.444V42.1358C245.444 40.7888 245.082 39.7536 244.359 39.0303C243.661 38.2819 242.688 37.9078 241.441 37.9078C240.193 37.9078 239.208 38.2819 238.485 39.0303C237.786 39.7536 237.437 40.7888 237.437 42.1358V53.4729H231.076V42.1358C231.076 40.7888 230.715 39.7536 229.991 39.0303C229.293 38.2819 228.32 37.9078 227.073 37.9078C225.826 37.9078 224.84 38.2819 224.117 39.0303C223.418 39.7536 223.069 40.7888 223.069 42.1358V53.4729H216.671V32.5947H223.069V35.2138C223.718 34.3408 224.566 33.6548 225.613 33.1559C226.661 32.6321 227.846 32.3702 229.168 32.3702C230.739 32.3702 232.136 32.7069 233.359 33.3804C234.606 34.0539 235.579 35.0143 236.277 36.2615C237 35.114 237.986 34.1786 239.233 33.4553C240.48 32.7319 241.84 32.3702 243.311 32.3702Z" fill="white"/>
<rect opacity="0.2" width="74.8323" height="74.8323" rx="37.4161" fill="white"/>
<rect x="32.739" y="31.1802" width="49.8882" height="49.8882" rx="24.9441" fill="white"/>
</svg>
